# xmcd
#
# Track frame offsets: 
#        150
#        14222
#        31172
#        48490
#        64732
#        83359
#        99882
#        114608
#        131579
#        148452
#        166171
#
# Disc length: 2431 seconds
#
# Revision: 0
# Processed by: cddbd v1.5.2PL0 Copyright (c) Steve Scherf et al.
# Submitted via: ExactAudioCopyFreeDBPlugin 1.0
#
DISCID=90097d0b
DTITLE=Meiko - The Bright Side
DYEAR=2012
DGENRE=Folk
TTITLE0=Stuck On You
TTITLE1=I'm In Love
TTITLE2=When The Doors Close
TTITLE3=Thinking Too Much
TTITLE4=Leave The Lights On
TTITLE5=Lie To Me
TTITLE6=I'm Not Sorry
TTITLE7=Let It Go
TTITLE8=Real Real Sweet
TTITLE9=Good Looking Loser
TTITLE10=I Wonder
EXTD=
EXTT0=
EXTT1=
EXTT2=
EXTT3=
EXTT4=
EXTT5=
EXTT6=
EXTT7=
EXTT8=
EXTT9=
EXTT10=
PLAYORDER=
